<?xml version="1.0" standalone="no"?>
<!DOCTYPE svg PUBLIC "-//W3C//DTD SVG 1.1//EN" "http://www.w3.org/Graphics/SVG/1.1/DTD/svg11.dtd">
<svg width="31mm" height="129mm" viewBox="0 -129 31 129" xmlns="http://www.w3.org/2000/svg" version="1.1">
<title>OpenSCAD Model</title>
<path d="
M 30.48,-128.5 L 0,-128.5 L 0,-0 L 30.48,-0 z
M 21.48,-123.9 L 21.3795,-123.903 L 21.2795,-123.913 L 21.1802,-123.928 L 21.0821,-123.95 L 20.9856,-123.978
 L 20.891,-124.012 L 20.7988,-124.052 L 20.7092,-124.098 L 20.6227,-124.149 L 20.5395,-124.206 L 20.4601,-124.267
 L 20.3847,-124.334 L 20.3136,-124.405 L 20.2472,-124.48 L 20.1856,-124.56 L 20.1291,-124.643 L 20.0779,-124.729
 L 20.0323,-124.819 L 19.9924,-124.911 L 19.9583,-125.006 L 19.9303,-125.102 L 19.9083,-125.2 L 19.8926,-125.299
 L 19.8831,-125.4 L 19.88,-125.5 L 19.8831,-125.6 L 19.8926,-125.701 L 19.9083,-125.8 L 19.9303,-125.898
 L 19.9583,-125.994 L 19.9924,-126.089 L 20.0323,-126.181 L 20.0779,-126.271 L 20.1291,-126.357 L 20.1856,-126.44
 L 20.2472,-126.52 L 20.3136,-126.595 L 20.3847,-126.666 L 20.4601,-126.733 L 20.5395,-126.794 L 20.6227,-126.851
 L 20.7092,-126.902 L 20.7988,-126.948 L 20.891,-126.988 L 20.9856,-127.022 L 21.0821,-127.05 L 21.1802,-127.072
 L 21.2795,-127.087 L 21.3795,-127.097 L 21.48,-127.1 L 24.48,-127.1 L 24.5805,-127.097 L 24.6805,-127.087
 L 24.7798,-127.072 L 24.8779,-127.05 L 24.9744,-127.022 L 25.069,-126.988 L 25.1612,-126.948 L 25.2508,-126.902
 L 25.3373,-126.851 L 25.4205,-126.794 L 25.4999,-126.733 L 25.5753,-126.666 L 25.6463,-126.595 L 25.7128,-126.52
 L 25.7744,-126.44 L 25.8309,-126.357 L 25.8821,-126.271 L 25.9277,-126.181 L 25.9676,-126.089 L 26.0017,-125.994
 L 26.0297,-125.898 L 26.0517,-125.8 L 26.0674,-125.701 L 26.0768,-125.6 L 26.08,-125.5 L 26.0768,-125.4
 L 26.0674,-125.299 L 26.0517,-125.2 L 26.0297,-125.102 L 26.0017,-125.006 L 25.9676,-124.911 L 25.9277,-124.819
 L 25.8821,-124.729 L 25.8309,-124.643 L 25.7744,-124.56 L 25.7128,-124.48 L 25.6463,-124.405 L 25.5753,-124.334
 L 25.4999,-124.267 L 25.4205,-124.206 L 25.3373,-124.149 L 25.2508,-124.098 L 25.1612,-124.052 L 25.069,-124.012
 L 24.9744,-123.978 L 24.8779,-123.95 L 24.7798,-123.928 L 24.6805,-123.913 L 24.5805,-123.903 L 24.48,-123.9
 z
M 6,-123.9 L 5.89952,-123.903 L 5.79945,-123.913 L 5.70018,-123.928 L 5.6021,-123.95 L 5.50557,-123.978
 L 5.411,-124.012 L 5.31874,-124.052 L 5.22919,-124.098 L 5.14267,-124.149 L 5.05954,-124.206 L 4.98012,-124.267
 L 4.90472,-124.334 L 4.83365,-124.405 L 4.76717,-124.48 L 4.70557,-124.56 L 4.64906,-124.643 L 4.5979,-124.729
 L 4.55228,-124.819 L 4.51234,-124.911 L 4.4783,-125.006 L 4.45026,-125.102 L 4.42833,-125.2 L 4.41261,-125.299
 L 4.40315,-125.4 L 4.39999,-125.5 L 4.40315,-125.6 L 4.41261,-125.701 L 4.42833,-125.8 L 4.45026,-125.898
 L 4.4783,-125.994 L 4.51234,-126.089 L 4.55228,-126.181 L 4.5979,-126.271 L 4.64906,-126.357 L 4.70557,-126.44
 L 4.76717,-126.52 L 4.83365,-126.595 L 4.90472,-126.666 L 4.98012,-126.733 L 5.05954,-126.794 L 5.14267,-126.851
 L 5.22919,-126.902 L 5.31874,-126.948 L 5.411,-126.988 L 5.50557,-127.022 L 5.6021,-127.05 L 5.70018,-127.072
 L 5.79945,-127.087 L 5.89952,-127.097 L 6,-127.1 L 9,-127.1 L 9.10046,-127.097 L 9.20053,-127.087
 L 9.2998,-127.072 L 9.3979,-127.05 L 9.49442,-127.022 L 9.58899,-126.988 L 9.68124,-126.948 L 9.7708,-126.902
 L 9.85732,-126.851 L 9.94044,-126.794 L 10.0199,-126.733 L 10.0953,-126.666 L 10.1663,-126.595 L 10.2328,-126.52
 L 10.2944,-126.44 L 10.3509,-126.357 L 10.4021,-126.271 L 10.4477,-126.181 L 10.4876,-126.089 L 10.5217,-125.994
 L 10.5497,-125.898 L 10.5717,-125.8 L 10.5874,-125.701 L 10.5968,-125.6 L 10.6,-125.5 L 10.5968,-125.4
 L 10.5874,-125.299 L 10.5717,-125.2 L 10.5497,-125.102 L 10.5217,-125.006 L 10.4876,-124.911 L 10.4477,-124.819
 L 10.4021,-124.729 L 10.3509,-124.643 L 10.2944,-124.56 L 10.2328,-124.48 L 10.1663,-124.405 L 10.0953,-124.334
 L 10.0199,-124.267 L 9.94044,-124.206 L 9.85732,-124.149 L 9.7708,-124.098 L 9.68124,-124.052 L 9.58899,-124.012
 L 9.49442,-123.978 L 9.3979,-123.95 L 9.2998,-123.928 L 9.20053,-123.913 L 9.10046,-123.903 L 9,-123.9
 z
M 15.0014,-95.1475 L 14.7637,-95.17 L 14.5279,-95.2073 L 14.295,-95.2594 L 14.0657,-95.326 L 13.8411,-95.4068
 L 13.622,-95.5016 L 13.4093,-95.61 L 13.2039,-95.7316 L 13.0064,-95.8657 L 12.8178,-96.012 L 12.6387,-96.1699
 L 12.4699,-96.3387 L 12.312,-96.5178 L 12.1657,-96.7064 L 12.0315,-96.9039 L 11.91,-97.1093 L 11.8017,-97.322
 L 11.7068,-97.5411 L 11.626,-97.7657 L 11.5594,-97.995 L 11.5073,-98.228 L 11.47,-98.4637 L 11.4475,-98.7014
 L 11.44,-98.94 L 11.4475,-99.1786 L 11.47,-99.4163 L 11.5073,-99.652 L 11.5594,-99.885 L 11.626,-100.114
 L 11.7068,-100.339 L 11.8017,-100.558 L 11.91,-100.771 L 12.0315,-100.976 L 12.1657,-101.174 L 12.312,-101.362
 L 12.4699,-101.541 L 12.6387,-101.71 L 12.8178,-101.868 L 13.0064,-102.014 L 13.2039,-102.148 L 13.4093,-102.27
 L 13.622,-102.378 L 13.8411,-102.473 L 14.0657,-102.554 L 14.295,-102.621 L 14.5279,-102.673 L 14.7637,-102.71
 L 15.0014,-102.732 L 15.24,-102.74 L 15.4786,-102.732 L 15.7163,-102.71 L 15.952,-102.673 L 16.185,-102.621
 L 16.4143,-102.554 L 16.6389,-102.473 L 16.858,-102.378 L 17.0707,-102.27 L 17.2761,-102.148 L 17.4736,-102.014
 L 17.6622,-101.868 L 17.8413,-101.71 L 18.0101,-101.541 L 18.1679,-101.362 L 18.3143,-101.174 L 18.4484,-100.976
 L 18.57,-100.771 L 18.6783,-100.558 L 18.7731,-100.339 L 18.854,-100.114 L 18.9206,-99.885 L 18.9727,-99.652
 L 19.01,-99.4163 L 19.0325,-99.1786 L 19.04,-98.94 L 19.0325,-98.7014 L 19.01,-98.4637 L 18.9727,-98.228
 L 18.9206,-97.995 L 18.854,-97.7657 L 18.7731,-97.5411 L 18.6783,-97.322 L 18.57,-97.1093 L 18.4484,-96.9039
 L 18.3143,-96.7064 L 18.1679,-96.5178 L 18.0101,-96.3387 L 17.8413,-96.1699 L 17.6622,-96.012 L 17.4736,-95.8657
 L 17.2761,-95.7316 L 17.0707,-95.61 L 16.858,-95.5016 L 16.6389,-95.4068 L 16.4143,-95.326 L 16.185,-95.2594
 L 15.952,-95.2073 L 15.7163,-95.17 L 15.4786,-95.1475 L 15.24,-95.14 z
M 15.0014,-69.7475 L 14.7637,-69.77 L 14.5279,-69.8073 L 14.295,-69.8594 L 14.0657,-69.926 L 13.8411,-70.0069
 L 13.622,-70.1017 L 13.4093,-70.21 L 13.2039,-70.3316 L 13.0064,-70.4657 L 12.8178,-70.612 L 12.6387,-70.7699
 L 12.4699,-70.9387 L 12.312,-71.1178 L 12.1657,-71.3064 L 12.0315,-71.5039 L 11.91,-71.7093 L 11.8017,-71.922
 L 11.7068,-72.1411 L 11.626,-72.3657 L 11.5594,-72.595 L 11.5073,-72.8279 L 11.47,-73.0637 L 11.4475,-73.3014
 L 11.44,-73.54 L 11.4475,-73.7786 L 11.47,-74.0163 L 11.5073,-74.252 L 11.5594,-74.485 L 11.626,-74.7143
 L 11.7068,-74.9389 L 11.8017,-75.158 L 11.91,-75.3707 L 12.0315,-75.5761 L 12.1657,-75.7736 L 12.312,-75.9622
 L 12.4699,-76.1413 L 12.6387,-76.3101 L 12.8178,-76.4679 L 13.0064,-76.6143 L 13.2039,-76.7484 L 13.4093,-76.87
 L 13.622,-76.9783 L 13.8411,-77.0732 L 14.0657,-77.154 L 14.295,-77.2206 L 14.5279,-77.2727 L 14.7637,-77.31
 L 15.0014,-77.3325 L 15.24,-77.34 L 15.4786,-77.3325 L 15.7163,-77.31 L 15.952,-77.2727 L 16.185,-77.2206
 L 16.4143,-77.154 L 16.6389,-77.0732 L 16.858,-76.9783 L 17.0707,-76.87 L 17.2761,-76.7484 L 17.4736,-76.6143
 L 17.6622,-76.4679 L 17.8413,-76.3101 L 18.0101,-76.1413 L 18.1679,-75.9622 L 18.3143,-75.7736 L 18.4484,-75.5761
 L 18.57,-75.3707 L 18.6783,-75.158 L 18.7731,-74.9389 L 18.854,-74.7143 L 18.9206,-74.485 L 18.9727,-74.252
 L 19.01,-74.0163 L 19.0325,-73.7786 L 19.04,-73.54 L 19.0325,-73.3014 L 19.01,-73.0637 L 18.9727,-72.8279
 L 18.9206,-72.595 L 18.854,-72.3657 L 18.7731,-72.1411 L 18.6783,-71.922 L 18.57,-71.7093 L 18.4484,-71.5039
 L 18.3143,-71.3064 L 18.1679,-71.1178 L 18.0101,-70.9387 L 17.8413,-70.7699 L 17.6622,-70.612 L 17.4736,-70.4657
 L 17.2761,-70.3316 L 17.0707,-70.21 L 16.858,-70.1017 L 16.6389,-70.0069 L 16.4143,-69.926 L 16.185,-69.8594
 L 15.952,-69.8073 L 15.7163,-69.77 L 15.4786,-69.7475 L 15.24,-69.74 z
M 7.38139,-44.3475 L 7.14372,-44.37 L 6.90794,-44.4073 L 6.67497,-44.4594 L 6.44572,-44.526 L 6.22112,-44.6068
 L 6.00203,-44.7016 L 5.78932,-44.81 L 5.58385,-44.9315 L 5.38641,-45.0657 L 5.19778,-45.2121 L 5.01871,-45.3699
 L 4.84991,-45.5387 L 4.69205,-45.7178 L 4.54573,-45.9064 L 4.41154,-46.1039 L 4.29002,-46.3093 L 4.18166,-46.522
 L 4.08684,-46.7411 L 4.00598,-46.9657 L 3.93938,-47.195 L 3.8873,-47.4279 L 3.84996,-47.6637 L 3.82748,-47.9014
 L 3.81999,-48.14 L 3.82748,-48.3786 L 3.84996,-48.6163 L 3.8873,-48.852 L 3.93938,-49.085 L 4.00598,-49.3143
 L 4.08684,-49.5389 L 4.18166,-49.7579 L 4.29002,-49.9707 L 4.41154,-50.1761 L 4.54573,-50.3736 L 4.69205,-50.5622
 L 4.84991,-50.7413 L 5.01871,-50.9101 L 5.19778,-51.0679 L 5.38641,-51.2143 L 5.58385,-51.3484 L 5.78932,-51.47
 L 6.00203,-51.5783 L 6.22112,-51.6731 L 6.44572,-51.754 L 6.67497,-51.8206 L 6.90794,-51.8727 L 7.14372,-51.91
 L 7.38139,-51.9325 L 7.62,-51.94 L 7.8586,-51.9325 L 8.09625,-51.91 L 8.33205,-51.8727 L 8.56502,-51.8206
 L 8.79425,-51.754 L 9.01886,-51.6731 L 9.23796,-51.5783 L 9.45065,-51.47 L 9.65613,-51.3484 L 9.85358,-51.2143
 L 10.0422,-51.0679 L 10.2213,-50.9101 L 10.3901,-50.7413 L 10.5479,-50.5622 L 10.6943,-50.3736 L 10.8284,-50.1761
 L 10.95,-49.9707 L 11.0583,-49.7579 L 11.1531,-49.5389 L 11.234,-49.3143 L 11.3006,-49.085 L 11.3527,-48.852
 L 11.39,-48.6163 L 11.4125,-48.3786 L 11.42,-48.14 L 11.4125,-47.9014 L 11.39,-47.6637 L 11.3527,-47.4279
 L 11.3006,-47.195 L 11.234,-46.9657 L 11.1531,-46.7411 L 11.0583,-46.522 L 10.95,-46.3093 L 10.8284,-46.1039
 L 10.6943,-45.9064 L 10.5479,-45.7178 L 10.3901,-45.5387 L 10.2213,-45.3699 L 10.0422,-45.2121 L 9.85358,-45.0657
 L 9.65613,-44.9315 L 9.45065,-44.81 L 9.23796,-44.7016 L 9.01886,-44.6068 L 8.79425,-44.526 L 8.56502,-44.4594
 L 8.33205,-44.4073 L 8.09625,-44.37 L 7.8586,-44.3475 L 7.62,-44.34 z
M 22.6214,-44.3475 L 22.3837,-44.37 L 22.1479,-44.4073 L 21.915,-44.4594 L 21.6857,-44.526 L 21.4611,-44.6068
 L 21.242,-44.7016 L 21.0293,-44.81 L 20.8239,-44.9315 L 20.6264,-45.0657 L 20.4378,-45.2121 L 20.2587,-45.3699
 L 20.0899,-45.5387 L 19.932,-45.7178 L 19.7857,-45.9064 L 19.6516,-46.1039 L 19.53,-46.3093 L 19.4216,-46.522
 L 19.3268,-46.7411 L 19.246,-46.9657 L 19.1794,-47.195 L 19.1273,-47.4279 L 19.09,-47.6637 L 19.0675,-47.9014
 L 19.06,-48.14 L 19.0675,-48.3786 L 19.09,-48.6163 L 19.1273,-48.852 L 19.1794,-49.085 L 19.246,-49.3143
 L 19.3268,-49.5389 L 19.4216,-49.7579 L 19.53,-49.9707 L 19.6516,-50.1761 L 19.7857,-50.3736 L 19.932,-50.5622
 L 20.0899,-50.7413 L 20.2587,-50.9101 L 20.4378,-51.0679 L 20.6264,-51.2143 L 20.8239,-51.3484 L 21.0293,-51.47
 L 21.242,-51.5783 L 21.4611,-51.6731 L 21.6857,-51.754 L 21.915,-51.8206 L 22.1479,-51.8727 L 22.3837,-51.91
 L 22.6214,-51.9325 L 22.86,-51.94 L 23.0986,-51.9325 L 23.3363,-51.91 L 23.572,-51.8727 L 23.805,-51.8206
 L 24.0343,-51.754 L 24.2589,-51.6731 L 24.478,-51.5783 L 24.6907,-51.47 L 24.8961,-51.3484 L 25.0936,-51.2143
 L 25.2822,-51.0679 L 25.4613,-50.9101 L 25.6301,-50.7413 L 25.7879,-50.5622 L 25.9343,-50.3736 L 26.0684,-50.1761
 L 26.19,-49.9707 L 26.2983,-49.7579 L 26.3931,-49.5389 L 26.474,-49.3143 L 26.5406,-49.085 L 26.5927,-48.852
 L 26.63,-48.6163 L 26.6525,-48.3786 L 26.66,-48.14 L 26.6525,-47.9014 L 26.63,-47.6637 L 26.5927,-47.4279
 L 26.5406,-47.195 L 26.474,-46.9657 L 26.3931,-46.7411 L 26.2983,-46.522 L 26.19,-46.3093 L 26.0684,-46.1039
 L 25.9343,-45.9064 L 25.7879,-45.7178 L 25.6301,-45.5387 L 25.4613,-45.3699 L 25.2822,-45.2121 L 25.0936,-45.0657
 L 24.8961,-44.9315 L 24.6907,-44.81 L 24.478,-44.7016 L 24.2589,-44.6068 L 24.0343,-44.526 L 23.805,-44.4594
 L 23.572,-44.4073 L 23.3363,-44.37 L 23.0986,-44.3475 L 22.86,-44.34 z
M 7.41278,-27.0265 L 7.20639,-27.046 L 7.00163,-27.0784 L 6.79932,-27.1237 L 6.60023,-27.1815 L 6.40518,-27.2517
 L 6.21492,-27.3341 L 6.03021,-27.4282 L 5.85176,-27.5337 L 5.6803,-27.6502 L 5.51649,-27.7773 L 5.36099,-27.9144
 L 5.2144,-28.061 L 5.0773,-28.2165 L 4.95024,-28.3803 L 4.83371,-28.5518 L 4.72818,-28.7302 L 4.63406,-28.9149
 L 4.55173,-29.1052 L 4.48151,-29.3002 L 4.42368,-29.4993 L 4.37845,-29.7016 L 4.34601,-29.9064 L 4.32651,-30.1128
 L 4.31999,-30.32 L 4.32651,-30.5272 L 4.34601,-30.7336 L 4.37845,-30.9384 L 4.42368,-31.1407 L 4.48151,-31.3398
 L 4.55173,-31.5348 L 4.63406,-31.7251 L 4.72818,-31.9098 L 4.83371,-32.0882 L 4.95024,-32.2597 L 5.0773,-32.4235
 L 5.2144,-32.579 L 5.36099,-32.7256 L 5.51649,-32.8627 L 5.6803,-32.9897 L 5.85176,-33.1063 L 6.03021,-33.2118
 L 6.21492,-33.3059 L 6.40518,-33.3883 L 6.60023,-33.4585 L 6.79932,-33.5163 L 7.00163,-33.5615 L 7.20639,-33.594
 L 7.41278,-33.6135 L 7.62,-33.62 L 7.82719,-33.6135 L 8.03358,-33.594 L 8.23836,-33.5615 L 8.44067,-33.5163
 L 8.63976,-33.4585 L 8.83481,-33.3883 L 9.02507,-33.3059 L 9.20978,-33.2118 L 9.38821,-33.1063 L 9.55968,-32.9897
 L 9.7235,-32.8627 L 9.879,-32.7256 L 10.0256,-32.579 L 10.1627,-32.4235 L 10.2897,-32.2597 L 10.4063,-32.0882
 L 10.5118,-31.9098 L 10.6059,-31.7251 L 10.6882,-31.5348 L 10.7585,-31.3398 L 10.8163,-31.1407 L 10.8615,-30.9384
 L 10.894,-30.7336 L 10.9135,-30.5272 L 10.92,-30.32 L 10.9135,-30.1128 L 10.894,-29.9064 L 10.8615,-29.7016
 L 10.8163,-29.4993 L 10.7585,-29.3002 L 10.6882,-29.1052 L 10.6059,-28.9149 L 10.5118,-28.7302 L 10.4063,-28.5518
 L 10.2897,-28.3803 L 10.1627,-28.2165 L 10.0256,-28.061 L 9.879,-27.9144 L 9.7235,-27.7773 L 9.55968,-27.6502
 L 9.38821,-27.5337 L 9.20978,-27.4282 L 9.02507,-27.3341 L 8.83481,-27.2517 L 8.63976,-27.1815 L 8.44067,-27.1237
 L 8.23836,-27.0784 L 8.03358,-27.046 L 7.82719,-27.0265 L 7.62,-27.02 z
M 22.6528,-27.0265 L 22.4464,-27.046 L 22.2416,-27.0784 L 22.0393,-27.1237 L 21.8402,-27.1815 L 21.6452,-27.2517
 L 21.4549,-27.3341 L 21.2702,-27.4282 L 21.0918,-27.5337 L 20.9203,-27.6502 L 20.7565,-27.7773 L 20.601,-27.9144
 L 20.4544,-28.061 L 20.3173,-28.2165 L 20.1902,-28.3803 L 20.0737,-28.5518 L 19.9682,-28.7302 L 19.8741,-28.9149
 L 19.7917,-29.1052 L 19.7215,-29.3002 L 19.6637,-29.4993 L 19.6184,-29.7016 L 19.586,-29.9064 L 19.5665,-30.1128
 L 19.56,-30.32 L 19.5665,-30.5272 L 19.586,-30.7336 L 19.6184,-30.9384 L 19.6637,-31.1407 L 19.7215,-31.3398
 L 19.7917,-31.5348 L 19.8741,-31.7251 L 19.9682,-31.9098 L 20.0737,-32.0882 L 20.1902,-32.2597 L 20.3173,-32.4235
 L 20.4544,-32.579 L 20.601,-32.7256 L 20.7565,-32.8627 L 20.9203,-32.9897 L 21.0918,-33.1063 L 21.2702,-33.2118
 L 21.4549,-33.3059 L 21.6452,-33.3883 L 21.8402,-33.4585 L 22.0393,-33.5163 L 22.2416,-33.5615 L 22.4464,-33.594
 L 22.6528,-33.6135 L 22.86,-33.62 L 23.0672,-33.6135 L 23.2736,-33.594 L 23.4783,-33.5615 L 23.6807,-33.5163
 L 23.8797,-33.4585 L 24.0748,-33.3883 L 24.2651,-33.3059 L 24.4498,-33.2118 L 24.6282,-33.1063 L 24.7997,-32.9897
 L 24.9635,-32.8627 L 25.119,-32.7256 L 25.2656,-32.579 L 25.4027,-32.4235 L 25.5298,-32.2597 L 25.6463,-32.0882
 L 25.7518,-31.9098 L 25.8459,-31.7251 L 25.9283,-31.5348 L 25.9985,-31.3398 L 26.0563,-31.1407 L 26.1015,-30.9384
 L 26.134,-30.7336 L 26.1535,-30.5272 L 26.16,-30.32 L 26.1535,-30.1128 L 26.134,-29.9064 L 26.1015,-29.7016
 L 26.0563,-29.4993 L 25.9985,-29.3002 L 25.9283,-29.1052 L 25.8459,-28.9149 L 25.7518,-28.7302 L 25.6463,-28.5518
 L 25.5298,-28.3803 L 25.4027,-28.2165 L 25.2656,-28.061 L 25.119,-27.9144 L 24.9635,-27.7773 L 24.7997,-27.6502
 L 24.6282,-27.5337 L 24.4498,-27.4282 L 24.2651,-27.3341 L 24.0748,-27.2517 L 23.8797,-27.1815 L 23.6807,-27.1237
 L 23.4783,-27.0784 L 23.2736,-27.046 L 23.0672,-27.0265 L 22.86,-27.02 z
M 7.41278,-11.7865 L 7.20639,-11.806 L 7.00163,-11.8384 L 6.79932,-11.8837 L 6.60023,-11.9415 L 6.40518,-12.0117
 L 6.21492,-12.0941 L 6.03021,-12.1882 L 5.85176,-12.2937 L 5.6803,-12.4102 L 5.51649,-12.5373 L 5.36099,-12.6744
 L 5.2144,-12.821 L 5.0773,-12.9765 L 4.95024,-13.1403 L 4.83371,-13.3118 L 4.72818,-13.4902 L 4.63406,-13.6749
 L 4.55173,-13.8652 L 4.48151,-14.0602 L 4.42368,-14.2593 L 4.37845,-14.4616 L 4.34601,-14.6664 L 4.32651,-14.8728
 L 4.31999,-15.08 L 4.32651,-15.2872 L 4.34601,-15.4936 L 4.37845,-15.6983 L 4.42368,-15.9007 L 4.48151,-16.0997
 L 4.55173,-16.2948 L 4.63406,-16.4851 L 4.72818,-16.6698 L 4.83371,-16.8482 L 4.95024,-17.0197 L 5.0773,-17.1835
 L 5.2144,-17.339 L 5.36099,-17.4856 L 5.51649,-17.6227 L 5.6803,-17.7498 L 5.85176,-17.8663 L 6.03021,-17.9718
 L 6.21492,-18.0659 L 6.40518,-18.1483 L 6.60023,-18.2185 L 6.79932,-18.2763 L 7.00163,-18.3215 L 7.20639,-18.354
 L 7.41278,-18.3735 L 7.62,-18.38 L 7.82719,-18.3735 L 8.03358,-18.354 L 8.23836,-18.3215 L 8.44067,-18.2763
 L 8.63976,-18.2185 L 8.83481,-18.1483 L 9.02507,-18.0659 L 9.20978,-17.9718 L 9.38821,-17.8663 L 9.55968,-17.7498
 L 9.7235,-17.6227 L 9.879,-17.4856 L 10.0256,-17.339 L 10.1627,-17.1835 L 10.2897,-17.0197 L 10.4063,-16.8482
 L 10.5118,-16.6698 L 10.6059,-16.4851 L 10.6882,-16.2948 L 10.7585,-16.0997 L 10.8163,-15.9007 L 10.8615,-15.6983
 L 10.894,-15.4936 L 10.9135,-15.2872 L 10.92,-15.08 L 10.9135,-14.8728 L 10.894,-14.6664 L 10.8615,-14.4616
 L 10.8163,-14.2593 L 10.7585,-14.0602 L 10.6882,-13.8652 L 10.6059,-13.6749 L 10.5118,-13.4902 L 10.4063,-13.3118
 L 10.2897,-13.1403 L 10.1627,-12.9765 L 10.0256,-12.821 L 9.879,-12.6744 L 9.7235,-12.5373 L 9.55968,-12.4102
 L 9.38821,-12.2937 L 9.20978,-12.1882 L 9.02507,-12.0941 L 8.83481,-12.0117 L 8.63976,-11.9415 L 8.44067,-11.8837
 L 8.23836,-11.8384 L 8.03358,-11.806 L 7.82719,-11.7865 L 7.62,-11.78 z
M 22.6528,-11.7865 L 22.4464,-11.806 L 22.2416,-11.8384 L 22.0393,-11.8837 L 21.8402,-11.9415 L 21.6452,-12.0117
 L 21.4549,-12.0941 L 21.2702,-12.1882 L 21.0918,-12.2937 L 20.9203,-12.4102 L 20.7565,-12.5373 L 20.601,-12.6744
 L 20.4544,-12.821 L 20.3173,-12.9765 L 20.1902,-13.1403 L 20.0737,-13.3118 L 19.9682,-13.4902 L 19.8741,-13.6749
 L 19.7917,-13.8652 L 19.7215,-14.0602 L 19.6637,-14.2593 L 19.6184,-14.4616 L 19.586,-14.6664 L 19.5665,-14.8728
 L 19.56,-15.08 L 19.5665,-15.2872 L 19.586,-15.4936 L 19.6184,-15.6983 L 19.6637,-15.9007 L 19.7215,-16.0997
 L 19.7917,-16.2948 L 19.8741,-16.4851 L 19.9682,-16.6698 L 20.0737,-16.8482 L 20.1902,-17.0197 L 20.3173,-17.1835
 L 20.4544,-17.339 L 20.601,-17.4856 L 20.7565,-17.6227 L 20.9203,-17.7498 L 21.0918,-17.8663 L 21.2702,-17.9718
 L 21.4549,-18.0659 L 21.6452,-18.1483 L 21.8402,-18.2185 L 22.0393,-18.2763 L 22.2416,-18.3215 L 22.4464,-18.354
 L 22.6528,-18.3735 L 22.86,-18.38 L 23.0672,-18.3735 L 23.2736,-18.354 L 23.4783,-18.3215 L 23.6807,-18.2763
 L 23.8797,-18.2185 L 24.0748,-18.1483 L 24.2651,-18.0659 L 24.4498,-17.9718 L 24.6282,-17.8663 L 24.7997,-17.7498
 L 24.9635,-17.6227 L 25.119,-17.4856 L 25.2656,-17.339 L 25.4027,-17.1835 L 25.5298,-17.0197 L 25.6463,-16.8482
 L 25.7518,-16.6698 L 25.8459,-16.4851 L 25.9283,-16.2948 L 25.9985,-16.0997 L 26.0563,-15.9007 L 26.1015,-15.6983
 L 26.134,-15.4936 L 26.1535,-15.2872 L 26.16,-15.08 L 26.1535,-14.8728 L 26.134,-14.6664 L 26.1015,-14.4616
 L 26.0563,-14.2593 L 25.9985,-14.0602 L 25.9283,-13.8652 L 25.8459,-13.6749 L 25.7518,-13.4902 L 25.6463,-13.3118
 L 25.5298,-13.1403 L 25.4027,-12.9765 L 25.2656,-12.821 L 25.119,-12.6744 L 24.9635,-12.5373 L 24.7997,-12.4102
 L 24.6282,-12.2937 L 24.4498,-12.1882 L 24.2651,-12.0941 L 24.0748,-12.0117 L 23.8797,-11.9415 L 23.6807,-11.8837
 L 23.4783,-11.8384 L 23.2736,-11.806 L 23.0672,-11.7865 L 22.86,-11.78 z
M 21.48,-1.39999 L 21.3795,-1.40315 L 21.2795,-1.41261 L 21.1802,-1.42833 L 21.0821,-1.45026 L 20.9856,-1.4783
 L 20.891,-1.51234 L 20.7988,-1.55228 L 20.7092,-1.5979 L 20.6227,-1.64906 L 20.5395,-1.70557 L 20.4601,-1.76717
 L 20.3847,-1.83365 L 20.3136,-1.90472 L 20.2472,-1.98012 L 20.1856,-2.05954 L 20.1291,-2.14267 L 20.0779,-2.22919
 L 20.0323,-2.31874 L 19.9924,-2.411 L 19.9583,-2.50557 L 19.9303,-2.60208 L 19.9083,-2.70018 L 19.8926,-2.79945
 L 19.8831,-2.89952 L 19.88,-3 L 19.8831,-3.10046 L 19.8926,-3.20053 L 19.9083,-3.2998 L 19.9303,-3.3979
 L 19.9583,-3.49442 L 19.9924,-3.58899 L 20.0323,-3.68124 L 20.0779,-3.7708 L 20.1291,-3.85732 L 20.1856,-3.94044
 L 20.2472,-4.01987 L 20.3136,-4.09526 L 20.3847,-4.16634 L 20.4601,-4.23282 L 20.5395,-4.29442 L 20.6227,-4.35092
 L 20.7092,-4.40208 L 20.7988,-4.44771 L 20.891,-4.48764 L 20.9856,-4.52168 L 21.0821,-4.54973 L 21.1802,-4.57166
 L 21.2795,-4.58737 L 21.3795,-4.59683 L 21.48,-4.59999 L 24.48,-4.59999 L 24.5805,-4.59683 L 24.6805,-4.58737
 L 24.7798,-4.57166 L 24.8779,-4.54973 L 24.9744,-4.52168 L 25.069,-4.48764 L 25.1612,-4.44771 L 25.2508,-4.40208
 L 25.3373,-4.35092 L 25.4205,-4.29442 L 25.4999,-4.23282 L 25.5753,-4.16634 L 25.6463,-4.09526 L 25.7128,-4.01987
 L 25.7744,-3.94044 L 25.8309,-3.85732 L 25.8821,-3.7708 L 25.9277,-3.68124 L 25.9676,-3.58899 L 26.0017,-3.49442
 L 26.0297,-3.3979 L 26.0517,-3.2998 L 26.0674,-3.20053 L 26.0768,-3.10046 L 26.08,-3 L 26.0768,-2.89952
 L 26.0674,-2.79945 L 26.0517,-2.70018 L 26.0297,-2.60208 L 26.0017,-2.50557 L 25.9676,-2.411 L 25.9277,-2.31874
 L 25.8821,-2.22919 L 25.8309,-2.14267 L 25.7744,-2.05954 L 25.7128,-1.98012 L 25.6463,-1.90472 L 25.5753,-1.83365
 L 25.4999,-1.76717 L 25.4205,-1.70557 L 25.3373,-1.64906 L 25.2508,-1.5979 L 25.1612,-1.55228 L 25.069,-1.51234
 L 24.9744,-1.4783 L 24.8779,-1.45026 L 24.7798,-1.42833 L 24.6805,-1.41261 L 24.5805,-1.40315 L 24.48,-1.39999
 z
M 6,-1.39999 L 5.89952,-1.40315 L 5.79945,-1.41261 L 5.70018,-1.42833 L 5.6021,-1.45026 L 5.50557,-1.4783
 L 5.411,-1.51234 L 5.31874,-1.55228 L 5.22919,-1.5979 L 5.14267,-1.64906 L 5.05954,-1.70557 L 4.98012,-1.76717
 L 4.90472,-1.83365 L 4.83365,-1.90472 L 4.76717,-1.98012 L 4.70557,-2.05954 L 4.64906,-2.14267 L 4.5979,-2.22919
 L 4.55228,-2.31874 L 4.51234,-2.411 L 4.4783,-2.50557 L 4.45026,-2.60208 L 4.42833,-2.70018 L 4.41261,-2.79945
 L 4.40315,-2.89952 L 4.39999,-3 L 4.40315,-3.10046 L 4.41261,-3.20053 L 4.42833,-3.2998 L 4.45026,-3.3979
 L 4.4783,-3.49442 L 4.51234,-3.58899 L 4.55228,-3.68124 L 4.5979,-3.7708 L 4.64906,-3.85732 L 4.70557,-3.94044
 L 4.76717,-4.01987 L 4.83365,-4.09526 L 4.90472,-4.16634 L 4.98012,-4.23282 L 5.05954,-4.29442 L 5.14267,-4.35092
 L 5.22919,-4.40208 L 5.31874,-4.44771 L 5.411,-4.48764 L 5.50557,-4.52168 L 5.6021,-4.54973 L 5.70018,-4.57166
 L 5.79945,-4.58737 L 5.89952,-4.59683 L 6,-4.59999 L 9,-4.59999 L 9.10046,-4.59683 L 9.20053,-4.58737
 L 9.2998,-4.57166 L 9.3979,-4.54973 L 9.49442,-4.52168 L 9.58899,-4.48764 L 9.68124,-4.44771 L 9.7708,-4.40208
 L 9.85732,-4.35092 L 9.94044,-4.29442 L 10.0199,-4.23282 L 10.0953,-4.16634 L 10.1663,-4.09526 L 10.2328,-4.01987
 L 10.2944,-3.94044 L 10.3509,-3.85732 L 10.4021,-3.7708 L 10.4477,-3.68124 L 10.4876,-3.58899 L 10.5217,-3.49442
 L 10.5497,-3.3979 L 10.5717,-3.2998 L 10.5874,-3.20053 L 10.5968,-3.10046 L 10.6,-3 L 10.5968,-2.89952
 L 10.5874,-2.79945 L 10.5717,-2.70018 L 10.5497,-2.60208 L 10.5217,-2.50557 L 10.4876,-2.411 L 10.4477,-2.31874
 L 10.4021,-2.22919 L 10.3509,-2.14267 L 10.2944,-2.05954 L 10.2328,-1.98012 L 10.1663,-1.90472 L 10.0953,-1.83365
 L 10.0199,-1.76717 L 9.94044,-1.70557 L 9.85732,-1.64906 L 9.7708,-1.5979 L 9.68124,-1.55228 L 9.58899,-1.51234
 L 9.49442,-1.4783 L 9.3979,-1.45026 L 9.2998,-1.42833 L 9.20053,-1.41261 L 9.10046,-1.40315 L 9,-1.39999
 z
" stroke="black" fill="lightgray" stroke-width="0.5"/>
</svg>
